# Project-authored CC0 Stage 4C shed; Stage 4B geometry with atlas-aware UVs.
o stage4c_textured_shed
v -2.0 0.0 -1.5
v 2.0 0.0 -1.5
v 2.0 0.0 1.5
v -2.0 0.0 1.5
v -2.0 2.5 -1.5
v 2.0 2.5 -1.5
v 2.0 2.5 1.5
v -2.0 2.5 1.5
v -2.25 2.5 -1.75
v 2.25 2.5 -1.75
v 2.25 2.5 1.75
v -2.25 2.5 1.75
v -2.25 3.0 -1.75
v 2.25 3.0 -1.75
v 2.25 3.0 1.75
v -2.25 3.0 1.75
vt 0.0 0.0
vt 0.0 0.5
vt 1.0 0.5
vt 1.0 0.0
vt 0.0 0.5
vt 0.0 1.0
vt 1.0 1.0
vt 1.0 0.5
vn -1.0 0.0 0.0
vn 1.0 0.0 0.0
vn 0.0 -1.0 0.0
vn 0.0 1.0 0.0
vn 0.0 0.0 -1.0
vn 0.0 0.0 1.0
usemtl shed_shell
f 1/1/3 2/2/3 3/3/3 4/4/3
f 5/1/4 8/2/4 7/3/4 6/4/4
f 1/1/1 4/2/1 8/3/1 5/4/1
f 3/1/2 2/2/2 6/3/2 7/4/2
f 2/1/5 1/2/5 5/3/5 6/4/5
f 4/1/6 3/2/6 7/3/6 8/4/6
f 9/5/3 10/6/3 11/7/3 12/8/3
f 13/5/4 16/6/4 15/7/4 14/8/4
f 9/5/1 12/6/1 16/7/1 13/8/1
f 11/5/2 10/6/2 14/7/2 15/8/2
f 10/5/5 9/6/5 13/7/5 14/8/5
f 12/5/6 11/6/6 15/7/6 16/8/6
