# Project-authored CC0 Stage 4D tall quad-only monument.
o stage4d_stone_monument
v -1.5 0.0 -1.5
v 1.5 0.0 -1.5
v 1.5 0.0 1.5
v -1.5 0.0 1.5
v -1.5 6.0 -1.5
v 1.5 6.0 -1.5
v 1.5 6.0 1.5
v -1.5 6.0 1.5
vt 0.0 0.0
vt 0.0 1.0
vt 1.0 1.0
vt 1.0 0.0
vn -1.0 0.0 0.0
vn 1.0 0.0 0.0
vn 0.0 -1.0 0.0
vn 0.0 1.0 0.0
vn 0.0 0.0 -1.0
vn 0.0 0.0 1.0
usemtl monument_shell
f 1/1/3 2/2/3 3/3/3 4/4/3
f 5/1/4 8/2/4 7/3/4 6/4/4
f 1/1/1 4/2/1 8/3/1 5/4/1
f 3/1/2 2/2/2 6/3/2 7/4/2
f 2/1/5 1/2/5 5/3/5 6/4/5
f 4/1/6 3/2/6 7/3/6 8/4/6
