# Generated deterministically from presentation/environment/stage6i_environment_kit.json
o stage6i_rural_kit
v -2.0000 0.0000 -1.5000
v 2.0000 0.0000 -1.5000
v 2.0000 0.0000 1.5000
v -2.0000 0.0000 1.5000
v -2.0000 3.0000 -1.5000
v 2.0000 3.0000 -1.5000
v 2.0000 3.0000 1.5000
v -2.0000 3.0000 1.5000
v -2.1600 3.0000 -1.6200
v 2.1600 3.0000 -1.6200
v 2.1600 3.0000 1.6200
v -2.1600 3.0000 1.6200
v -2.1600 3.6600 -1.6200
v 2.1600 3.6600 -1.6200
v 2.1600 3.6600 1.6200
v -2.1600 3.6600 1.6200
v -3.2100 0.0000 0.7900
v -2.7900 0.0000 0.7900
v -2.7900 0.0000 1.2100
v -3.2100 0.0000 1.2100
v -3.2100 2.2000 0.7900
v -2.7900 2.2000 0.7900
v -2.7900 2.2000 1.2100
v -3.2100 2.2000 1.2100
v -3.7500 1.6800 0.2500
v -2.2500 1.6800 0.2500
v -2.2500 1.6800 1.7500
v -3.7500 1.6800 1.7500
v -3.7500 4.0000 0.2500
v -2.2500 4.0000 0.2500
v -2.2500 4.0000 1.7500
v -3.7500 4.0000 1.7500
vt 0.0 0.0
vt 0.0 1.0
vt 1.0 1.0
vt 1.0 0.0
vn -1.0 0.0 0.0
vn 1.0 0.0 0.0
vn 0.0 -1.0 0.0
vn 0.0 1.0 0.0
vn 0.0 0.0 -1.0
vn 0.0 0.0 1.0
usemtl stage6i_rural_kit_material
f 1/1/3 2/2/3 3/3/3 4/4/3
f 5/1/4 8/2/4 7/3/4 6/4/4
f 1/1/1 4/2/1 8/3/1 5/4/1
f 3/1/2 2/2/2 6/3/2 7/4/2
f 2/1/5 1/2/5 5/3/5 6/4/5
f 4/1/6 3/2/6 7/3/6 8/4/6
f 9/1/3 10/2/3 11/3/3 12/4/3
f 13/1/4 16/2/4 15/3/4 14/4/4
f 9/1/1 12/2/1 16/3/1 13/4/1
f 11/1/2 10/2/2 14/3/2 15/4/2
f 10/1/5 9/2/5 13/3/5 14/4/5
f 12/1/6 11/2/6 15/3/6 16/4/6
f 17/1/3 18/2/3 19/3/3 20/4/3
f 21/1/4 24/2/4 23/3/4 22/4/4
f 17/1/1 20/2/1 24/3/1 21/4/1
f 19/1/2 18/2/2 22/3/2 23/4/2
f 18/1/5 17/2/5 21/3/5 22/4/5
f 20/1/6 19/2/6 23/3/6 24/4/6
f 25/1/3 26/2/3 27/3/3 28/4/3
f 29/1/4 32/2/4 31/3/4 30/4/4
f 25/1/1 28/2/1 32/3/1 29/4/1
f 27/1/2 26/2/2 30/3/2 31/4/2
f 26/1/5 25/2/5 29/3/5 30/4/5
f 28/1/6 27/2/6 31/3/6 32/4/6
