# Project-authored CC0 Stage 4E mixed triangle/quad proof tower.
o stage4e_faceted_tower
v -1.5 0.0 -1.5
v 1.5 0.0 -1.5
v 1.5 0.0 1.5
v -1.5 0.0 1.5
v -1.5 4.0 -1.5
v 1.5 4.0 -1.5
v 1.5 4.0 1.5
v -1.5 4.0 1.5
v 0.0 6.0 0.0
vt 0.0 0.0
vt 0.0 1.0
vt 1.0 1.0
vt 1.0 0.0
vt 0.5 1.0
vn -1.0 0.0 0.0
vn 1.0 0.0 0.0
vn 0.0 0.0 -1.0
vn 0.0 0.0 1.0
vn 0.0 0.6 -0.8
vn 0.8 0.6 0.0
vn 0.0 0.6 0.8
vn -0.8 0.6 0.0
usemtl faceted_shell
f 1/1/1 4/2/1 8/3/1 5/4/1
f 3/1/2 2/2/2 6/3/2 7/4/2
f 2/1/3 1/2/3 5/3/3 6/4/3
f 4/1/4 3/2/4 7/3/4 8/4/4
f 6/4/5 5/1/5 9/5/5
f 7/4/6 6/1/6 9/5/6
f 8/4/7 7/1/7 9/5/7
f 5/4/8 8/1/8 9/5/8
